<svg xmlns="http://www.w3.org/2000/svg" width="480" height="480" viewBox="0 0 480 480" version="1.1" aria-hidden="true" focusable="false">
	<path d="M 227.093 32.816 C 214.939 44.281, 215.385 43.430, 217.555 51 C 218.146 53.059, 218.036 53.279, 216.936 52.250 C 216.201 51.563, 214.999 51, 214.265 51 C 211.676 51, 194.391 59.939, 185.448 65.904 C 157.373 84.628, 139.292 111.255, 132.417 144 C 130.356 153.820, 129.249 194.408, 130.913 199.181 C 131.687 201.401, 131.726 202.591, 131.031 202.823 C 130.337 203.054, 130 224.497, 130 268.475 L 130 333.784 138.750 341.672 C 151.984 353.603, 158.396 358.881, 171.031 368.244 C 193.964 385.240, 224 402.383, 224 398.477 C 224 398.189, 217.511 379.402, 209.579 356.727 C 149.479 184.906, 148.780 182.887, 149.206 182.460 C 149.626 182.040, 216.133 213.733, 217.317 214.917 C 217.773 215.373, 217.646 217.601, 217.036 219.868 C 215.986 223.765, 216.562 226.042, 227.546 261.457 C 238.537 296.891, 239.081 299.046, 237.584 301.184 C 236.713 302.428, 236 304.271, 236 305.280 C 236 306.820, 236.682 307.066, 240.250 306.807 C 244.233 306.519, 244.582 306.248, 245.807 302.500 C 250.078 289.434, 268.464 229.793, 269.322 226.221 C 270.320 222.068, 270.241 221.831, 266.640 218.143 L 262.929 214.343 300.715 196.295 C 321.497 186.369, 338.631 178.360, 338.792 178.499 C 338.952 178.637, 338.405 180.494, 337.576 182.625 C 336.747 184.756, 326.338 214.400, 314.446 248.500 C 262.150 398.454, 266.324 387.079, 261.956 391.538 C 254.329 399.323, 257.532 400.056, 269.918 393.360 C 295.244 379.668, 323.282 358.908, 347.233 336.116 L 356.100 327.677 355.766 240.089 C 355.438 154.422, 355.383 152.288, 353.257 142.842 C 345.207 107.078, 327.100 80.054, 298.150 60.596 L 292.799 57 341.400 57 L 390 57 390 198.475 L 390 339.949 380.332 350.022 C 347.623 384.100, 306.166 413.438, 256.500 437.654 C 248.250 441.677, 240.825 444.968, 240 444.968 C 239.175 444.968, 231.750 441.677, 223.500 437.654 C 173.834 413.438, 132.377 384.100, 99.668 350.022 L 90 339.949 90 198.475 L 90 57 140.492 57 L 190.985 57 199.742 52.614 C 204.559 50.201, 209.512 47.921, 210.750 47.546 C 211.988 47.172, 213 46.221, 213 45.433 C 213 44.203, 203.356 44, 145 44 L 77 44 77 195.226 L 77 346.451 95.268 364.476 C 122.159 391.008, 144.109 408.225, 173.949 426.191 C 190.268 436.016, 237.124 460, 240 460 C 242.876 460, 289.732 436.016, 306.051 426.191 C 335.985 408.168, 358.006 390.886, 384.741 364.433 L 403 346.367 403 195.183 L 403 44 332.975 44 L 262.950 44 261.874 46.750 C 259.966 51.624, 259.571 56.998, 261.118 57.014 C 261.878 57.022, 267.053 59.218, 272.617 61.894 C 306.679 78.276, 329.240 104.809, 338.553 139.438 C 339.875 144.354, 340.854 148.464, 340.728 148.571 C 340.269 148.963, 268.303 183.286, 261.974 186.133 L 255.448 189.067 248.284 211.784 L 241.119 234.500 241.059 128.250 C 241.012 43.933, 240.742 22.006, 239.750 22.028 C 239.063 22.044, 233.367 26.899, 227.093 32.816 M 228.148 35.966 L 218.796 44.658 220.624 49.803 C 222.100 53.961, 222.208 55.192, 221.182 56.218 C 220.157 57.243, 219.333 57.154, 216.892 55.753 C 213.872 54.020, 213.861 54.023, 203.710 59.096 C 168.189 76.851, 145.710 103.521, 137.116 138.106 C 133.841 151.284, 133.041 159.167, 133.020 178.468 L 133 196.437 137.414 208.968 C 139.842 215.861, 143.667 226.787, 145.914 233.250 C 148.161 239.713, 151.768 250.063, 153.929 256.250 C 156.091 262.438, 161.316 277.400, 165.542 289.500 C 177.862 324.776, 184 343.101, 184 344.601 C 184 347.441, 180.979 345.879, 179.010 342.020 C 177.894 339.831, 171.425 325.094, 164.636 309.270 C 154.538 285.734, 147.479 266.977, 133.676 227 C 133.391 226.175, 133.122 249.363, 133.079 278.529 L 133 331.558 139.250 337.627 C 152.587 350.578, 172.668 366.310, 191.213 378.337 C 203.986 386.620, 217.891 394.442, 218.595 393.739 C 218.853 393.480, 215.936 384.321, 212.113 373.384 C 208.289 362.448, 195.413 325.600, 183.500 291.500 C 171.586 257.400, 158.012 218.561, 153.335 205.191 C 148.658 191.821, 145.080 180.234, 145.384 179.441 C 145.688 178.648, 146.451 178, 147.079 178 C 148.630 178, 218.141 211.042, 219.896 212.613 C 221.017 213.617, 221.088 214.896, 220.256 219.105 C 219.243 224.227, 219.481 225.185, 230.752 261.378 C 240.818 293.702, 242.147 298.773, 241.205 301.267 C 240.425 303.334, 240.431 304.023, 241.226 303.758 C 241.830 303.557, 247.906 285.463, 254.728 263.550 L 267.131 223.709 262.930 219.429 C 260.349 216.799, 258.950 214.573, 259.302 213.657 C 259.616 212.836, 264.506 209.990, 270.167 207.333 C 275.828 204.675, 293.744 196.147, 309.980 188.382 C 326.216 180.616, 340.063 174.477, 340.750 174.739 C 342.759 175.503, 342.243 178.504, 338.070 190.348 C 335.909 196.481, 329.117 215.900, 322.976 233.500 C 316.835 251.100, 306.944 279.450, 300.996 296.500 C 295.047 313.550, 285.390 341.217, 279.534 357.983 C 273.679 374.749, 268.126 389.332, 267.194 390.390 C 265.908 391.850, 266.706 391.637, 270.500 389.506 C 274.862 387.056, 284.774 381.150, 285.893 380.335 C 286.108 380.177, 285.759 379.415, 285.117 378.640 C 284.197 377.533, 285.429 372.995, 290.889 357.366 C 294.707 346.440, 301.736 326.250, 306.510 312.500 C 311.283 298.750, 318.339 278.500, 322.189 267.500 C 326.039 256.500, 329.554 246.375, 330 245 C 330.867 242.328, 344.045 204.687, 346.017 199.250 C 346.665 197.462, 347.818 196, 348.579 196 C 351.027 196, 351.096 200.260, 348.822 211 C 346.724 220.908, 346.579 224.365, 346.249 272.280 L 345.898 323.061 334.886 333.980 C 328.830 339.985, 318.101 349.687, 311.045 355.539 C 303.989 361.391, 295.859 369.120, 292.978 372.715 L 287.740 379.251 294.120 374.945 C 310.368 363.977, 328.908 349.004, 344.296 334.422 L 353.092 326.086 352.739 239.293 C 352.399 155.714, 352.309 152.167, 350.312 143.500 C 342.359 108.983, 324.110 81.842, 296.501 63.472 C 282.396 54.087, 280.282 54.542, 339.400 54.241 C 376.135 54.054, 390.652 54.296, 391.636 55.113 C 392.776 56.059, 393 79.641, 393 198.790 L 393 341.334 379.750 354.763 C 344.511 390.477, 310.764 414.276, 259.250 439.742 L 240 449.258 220.750 439.717 C 168.876 414.009, 135.467 390.455, 100.250 354.763 L 87 341.334 87 198.867 C 87 89.393, 87.278 56.122, 88.200 55.200 C 89.101 54.299, 101.901 54, 139.653 54 L 189.906 54 196.703 50.534 L 203.500 47.068 141.750 47.034 L 80 47 80 195.590 L 80 344.180 87.250 352.225 C 104.310 371.156, 133.728 396.092, 158.221 412.384 C 178.040 425.567, 191.901 433.423, 217.750 446.126 L 240 457.060 262.250 446.127 C 298.206 428.461, 323.643 412.799, 348.125 393.251 C 363.344 381.100, 383.079 362.956, 392.750 352.225 L 400 344.180 400 195.590 L 400 47 332.661 47 L 265.321 47 264.161 49.547 C 263.522 50.948, 263 52.488, 263 52.970 C 263 53.452, 267.799 56.138, 273.664 58.940 C 288.448 66.002, 300.008 73.962, 310.024 83.977 C 319.912 93.865, 326.288 102.455, 331.934 113.494 C 338.427 126.191, 344.688 146.845, 343 149.999 C 342.539 150.861, 334.138 155.347, 324.331 159.970 C 314.524 164.592, 296.502 173.205, 284.282 179.109 C 272.062 185.014, 261.165 190.130, 260.067 190.479 C 258.508 190.974, 257.062 194.338, 253.477 205.806 C 244.117 235.749, 241.862 242, 240.417 242 C 239.638 242, 238.893 241.887, 238.761 241.750 C 238.630 241.613, 238.292 193.299, 238.011 134.388 L 237.500 27.275 228.148 35.966 M 221.574 89.250 C 221.273 91.588, 220.332 105.425, 219.484 120 C 217.207 159.097, 216.033 176.300, 215.612 176.721 C 215.406 176.928, 201.598 171.947, 184.927 165.653 C 168.257 159.359, 154.029 154.435, 153.309 154.712 C 149.797 156.059, 152.991 158.504, 167.250 165.380 C 213.724 187.792, 223.204 192.136, 224.535 191.625 C 225.795 191.142, 226 184.064, 226 141.156 C 226 113.708, 225.719 89.844, 225.375 88.125 C 224.460 83.549, 222.224 84.211, 221.574 89.250 M 220.650 149.500 C 219.633 166.550, 218.619 180.689, 218.397 180.920 C 218.175 181.151, 209.370 178.113, 198.830 174.170 C 188.290 170.226, 179.511 167.156, 179.321 167.346 C 179.130 167.537, 188.696 172.296, 200.578 177.922 C 212.460 183.548, 222.372 187.961, 222.604 187.729 C 222.837 187.497, 222.908 171.825, 222.763 152.903 L 222.500 118.500 220.650 149.500 M 134.079 210.422 C 133.444 217.837, 148.233 262.608, 162.255 295.720 C 166.731 306.290, 170.508 314.825, 170.648 314.685 C 170.860 314.473, 135.938 213.551, 134.597 210.500 C 134.356 209.950, 134.122 209.915, 134.079 210.422 M 340.263 224.768 C 331.071 251.293, 319.297 285.118, 311.987 306 C 308.040 317.275, 304.446 327.625, 304 329 C 303.554 330.375, 299.990 340.725, 296.079 352 C 289.803 370.096, 289.293 372.090, 291.724 369 C 295.461 364.253, 297.013 362.821, 309.067 353 C 314.805 348.325, 324.787 339.375, 331.250 333.112 L 343 321.724 343 274.472 C 343 235.858, 343.285 225.719, 344.559 219.003 C 345.416 214.483, 345.949 210.616, 345.743 210.410 C 345.537 210.204, 343.071 216.665, 340.263 224.768" stroke="none" fill="#b4975a" fill-rule="evenodd"/>
</svg>
